<?xml version="1.0" encoding="utf-8"?>
<!-- Generator: Adobe Illustrator 16.0.0, SVG Export Plug-In . SVG Version: 6.00 Build 0)  -->
<!DOCTYPE svg PUBLIC "-//W3C//DTD SVG 1.1//EN" "http://www.w3.org/Graphics/SVG/1.1/DTD/svg11.dtd">
<svg version="1.1" id="Layer_1" xmlns="http://www.w3.org/2000/svg" xmlns:xlink="http://www.w3.org/1999/xlink" x="0px" y="0px"
	 width="32.016px" height="31.934px" viewBox="117.984 59.033 32.016 31.934" enable-background="new 117.984 59.033 32.016 31.934"
	 xml:space="preserve">
<path fill="#E63027" d="M135.942,88.285c-0.649-0.65-1.056-1.543-1.056-2.519v-8.288c0-1.057,0.975-1.544,1.543-1.544h8.37
	c1.706,0,3.575,1.382,3.575,3.575c0,1.95-1.544,3.575-3.494,3.575c-1.219,0-2.113-0.569-2.6-1.056c0,0-0.326-0.326-0.406-0.406
	c0.08-0.163,0.162-0.406,0.162-0.732l0,0c0-1.219-0.976-2.112-2.194-2.112c-0.569,0-1.056,0.244-1.462,0.569
	c-0.406,0.406-0.65,0.975-0.65,1.543c0,0.569,0.244,1.139,0.65,1.545s0.893,0.568,1.543,0.568c0.325,0,0.569-0.082,0.731-0.162
	c0.081,0.08,0.406,0.406,0.406,0.406c0.244,0.243,1.057,1.137,1.057,2.519l0,0c0,2.194-1.869,3.575-3.575,3.575
	C137.568,89.342,136.674,88.936,135.942,88.285 M120.828,82.029c-0.649-0.65-1.056-1.625-1.056-2.52c0-0.975,0.325-1.869,1.056-2.52
	c0.65-0.649,1.545-1.056,2.52-1.056h8.288c1.057,0,1.626,0.894,1.626,1.544v8.288c0,0.976-0.406,1.868-1.057,2.519
	c-0.488,0.488-1.301,1.057-2.52,1.057c-1.949,0-3.575-1.544-3.575-3.494l0,0c0-1.219,0.569-2.112,1.057-2.6
	c0,0,0.325-0.326,0.406-0.406c0.163,0.08,0.406,0.162,0.731,0.162c1.219,0,2.112-0.975,2.112-2.193c0-0.569-0.243-1.057-0.569-1.463
	c-0.406-0.406-0.975-0.65-1.543-0.65s-1.138,0.244-1.544,0.65s-0.569,0.894-0.569,1.463l0,0c0,0.324,0.082,0.568,0.163,0.73
	c-0.081,0.082-0.406,0.406-0.406,0.406c-0.244,0.244-1.138,1.057-2.519,1.057C122.373,83.085,121.479,82.679,120.828,82.029z
	 M134.887,64.315c0-0.975,0.406-1.869,1.056-2.519c0.487-0.488,1.3-1.057,2.519-1.057c0.976,0,1.869,0.406,2.52,1.057
	c0.65,0.65,1.057,1.544,1.057,2.438l0,0c0,1.219-0.568,2.113-1.057,2.6c0,0-0.325,0.325-0.406,0.407
	c-0.162-0.082-0.406-0.163-0.731-0.163c-1.219,0-2.112,0.975-2.112,2.194c0,0.569,0.244,1.056,0.568,1.462
	c0.406,0.406,0.975,0.65,1.544,0.65l0,0c0.569,0,1.138-0.244,1.544-0.65s0.568-0.894,0.568-1.462l0,0
	c0-0.325-0.08-0.569-0.162-0.731c0.082-0.081,0.406-0.406,0.406-0.406c0.244-0.244,1.138-1.056,2.52-1.056
	c2.193,0,3.574,1.869,3.574,3.575c0,0.975-0.406,1.869-1.056,2.519c-0.649,0.65-1.544,1.056-2.519,1.056h-8.207
	c-1.057,0-1.545-0.894-1.545-1.544L134.887,64.315L134.887,64.315z M127.167,66.915L127.167,66.915
	c-0.244-0.244-1.057-1.138-1.057-2.519l0,0c0-2.194,1.869-3.575,3.575-3.575c0.975,0,1.869,0.406,2.52,1.056
	c0.65,0.65,1.057,1.544,1.057,2.519v8.207c0,1.056-0.895,1.544-1.545,1.544h-8.287c-0.976,0-1.869-0.406-2.52-1.057
	c-0.488-0.487-1.057-1.3-1.057-2.519c0-0.975,0.406-1.869,1.057-2.519c0.65-0.65,1.544-1.057,2.438-1.057
	c1.219,0,2.113,0.569,2.601,1.057c0,0,0.325,0.325,0.406,0.406c-0.081,0.162-0.163,0.406-0.163,0.731
	c0,1.219,0.976,2.113,2.194,2.113c0.569,0,1.056-0.244,1.462-0.569c0.406-0.406,0.65-0.975,0.65-1.544s-0.244-1.137-0.65-1.543
	s-0.893-0.569-1.543-0.569c-0.325,0-0.568,0.081-0.731,0.163C127.492,67.24,127.167,66.915,127.167,66.915z M134.074,61.552
	c-1.057-1.543-2.682-2.519-4.47-2.519c-2.925,0-5.282,2.356-5.282,5.282c0,0.325,0.082,0.65,0.163,1.219
	c-0.243-0.082-0.813-0.163-1.219-0.163c-3.007,0-5.282,2.275-5.282,5.2c0,1.707,0.976,3.413,2.52,4.469
	c-1.544,1.057-2.52,2.682-2.52,4.388c0,2.925,2.357,5.281,5.363,5.281c0.325,0,0.813-0.081,1.138-0.162
	c-0.081,0.487-0.163,0.894-0.163,1.138c0,3.006,2.275,5.281,5.282,5.281c1.706,0,3.331-0.894,4.388-2.438
	c0.975,1.463,2.764,2.438,4.469,2.438c2.926,0,5.201-2.356,5.201-5.281c0-0.406-0.082-0.895-0.162-1.138
	c0.486,0.081,0.893,0.162,1.219,0.162c2.925,0,5.281-2.356,5.281-5.281c0-1.706-0.895-3.413-2.438-4.388
	c1.463-0.975,2.438-2.681,2.438-4.388c0-2.844-2.438-5.201-5.363-5.201c-0.406,0-0.813,0.082-1.137,0.163
	c0.08-0.244,0.162-0.813,0.162-1.219c0-3.006-2.275-5.282-5.201-5.282C136.756,59.033,135.049,60.008,134.074,61.552z"/>
</svg>
